<svg width="61" height="62" viewBox="0 0 61 62" fill="none" xmlns="http://www.w3.org/2000/svg">
<path fill-rule="evenodd" clip-rule="evenodd" d="M60.9998 30.931C60.9998 47.8282 47.3583 61.526 30.5307 61.526C13.703 61.526 0.0615234 47.8282 0.0615234 30.931C0.0615234 14.0338 13.703 0.335938 30.5307 0.335938C47.3583 0.335938 60.9998 14.0338 60.9998 30.931ZM51.4311 30.931C51.4311 42.5434 42.0737 51.9572 30.5307 51.9572C29.4666 51.9572 28.4211 51.8772 27.3997 51.7228L42.2389 26.0207H50.8581C51.2327 27.596 51.4311 29.2402 51.4311 30.931ZM48.9493 20.9844C45.4224 14.3885 38.4971 9.90473 30.5307 9.90473C22.5644 9.90473 15.6391 14.3885 12.1122 20.9844H48.9493ZM10.2034 26.0207C9.8288 27.596 9.63043 29.2402 9.63043 30.931C9.63043 34.576 10.5524 38.0045 12.1746 40.9931L20.8189 26.0207H10.2034ZM15.4154 45.4523L26.6342 26.0207H36.4236L22.4016 50.3075C19.7485 49.1796 17.3752 47.5163 15.4154 45.4523Z" fill="white"/>
</svg>
